<svg width="15" height="15" viewBox="0 0 15 15" fill="none" xmlns="http://www.w3.org/2000/svg">
<g clip-path="url(#clip0_48_137)">
<path d="M7.8537 15H5.44932L6.69932 10H4.1162C3.86656 9.9999 3.6204 9.9414 3.3974 9.82919C3.1744 9.71698 2.98074 9.55417 2.83189 9.35376C2.68304 9.15335 2.58313 8.9209 2.54014 8.67499C2.49716 8.42908 2.51229 8.17652 2.58432 7.9375L4.98495 0H10.9018L9.02682 5H11.5412C11.8273 5.00018 12.108 5.07788 12.3534 5.22482C12.5988 5.37177 12.7999 5.58248 12.9352 5.83456C13.0704 6.08663 13.1349 6.37064 13.1216 6.65641C13.1084 6.94218 13.0179 7.21902 12.8599 7.4575L7.8537 15Z" fill="white" fill-opacity="0.5"/>
</g>
<defs>
<clipPath id="clip0_48_137">
<rect width="15" height="15" fill="white"/>
</clipPath>
</defs>
</svg>
