<svg width="29" height="28" viewBox="0 0 29 28" fill="none" xmlns="http://www.w3.org/2000/svg">
<g clip-path="url(#clip0_35_379)">
<path d="M16.0856 16.3335V18.6668H13.7522V16.3335H0.918884V28.0002H28.9189V16.3335H16.0856Z" fill="url(#paint0_linear_35_379)"/>
<path d="M28.9189 14V8.16667C28.9189 7.23841 28.5501 6.34817 27.8938 5.69179C27.2374 5.03542 26.3471 4.66667 25.4189 4.66667H21.9189V2.33333C21.9189 1.71449 21.6731 1.121 21.2355 0.683418C20.7979 0.245833 20.2044 0 19.5856 0L10.2522 0C9.63338 0 9.03989 0.245833 8.6023 0.683418C8.16472 1.121 7.91888 1.71449 7.91888 2.33333V4.66667H4.41888C3.49063 4.66667 2.60039 5.03542 1.94401 5.69179C1.28763 6.34817 0.918884 7.23841 0.918884 8.16667L0.918884 14H28.9189ZM10.2522 2.33333H19.5856V4.66667H10.2522V2.33333Z" fill="url(#paint1_linear_35_379)"/>
</g>
<defs>
<linearGradient id="paint0_linear_35_379" x1="14.9189" y1="16.3335" x2="14.9189" y2="28.0002" gradientUnits="userSpaceOnUse">
<stop stop-color="#FF5000"/>
<stop offset="1" stop-color="#FFC400"/>
</linearGradient>
<linearGradient id="paint1_linear_35_379" x1="14.9189" y1="0" x2="14.9189" y2="14" gradientUnits="userSpaceOnUse">
<stop stop-color="#FF5000"/>
<stop offset="1" stop-color="#FFC400"/>
</linearGradient>
<clipPath id="clip0_35_379">
<rect width="28" height="28" fill="white" transform="translate(0.918884)"/>
</clipPath>
</defs>
</svg>
