<svg width="22" height="22" viewBox="0 0 22 22" fill="none" xmlns="http://www.w3.org/2000/svg">
<rect width="22" height="22" rx="3" fill="#536DDD"/>
<g clip-path="url(#clip0_225_2736)">
<path d="M15.2998 7.84625L9.54184 13.6038C9.50313 13.6426 9.45712 13.6735 9.40646 13.6945C9.3558 13.7155 9.30149 13.7264 9.24663 13.7264C9.19178 13.7264 9.13746 13.7155 9.0868 13.6945C9.03614 13.6735 8.99013 13.6426 8.95142 13.6038L6.72476 11.375C6.68604 11.3361 6.64004 11.3053 6.58938 11.2843C6.53872 11.2632 6.4844 11.2524 6.42955 11.2524C6.37469 11.2524 6.32038 11.2632 6.26972 11.2843C6.21906 11.3053 6.17305 11.3361 6.13434 11.375C6.09547 11.4137 6.06464 11.4597 6.04359 11.5104C6.02255 11.561 6.01172 11.6154 6.01172 11.6702C6.01172 11.7251 6.02255 11.7794 6.04359 11.83C6.06464 11.8807 6.09547 11.9267 6.13434 11.9654L8.36184 14.1925C8.59682 14.427 8.91525 14.5588 9.24726 14.5588C9.57926 14.5588 9.89769 14.427 10.1327 14.1925L15.8902 8.43625C15.929 8.39755 15.9598 8.35157 15.9808 8.30095C16.0018 8.25033 16.0126 8.19606 16.0126 8.14125C16.0126 8.08645 16.0018 8.03218 15.9808 7.98156C15.9598 7.93094 15.929 7.88496 15.8902 7.84625C15.8515 7.80739 15.8055 7.77655 15.7548 7.75551C15.7041 7.73446 15.6498 7.72363 15.595 7.72363C15.5401 7.72363 15.4858 7.73446 15.4351 7.75551C15.3845 7.77655 15.3385 7.80739 15.2998 7.84625Z" fill="white"/>
</g>
<defs>
<clipPath id="clip0_225_2736">
<rect width="10" height="10" fill="white" transform="translate(6 6)"/>
</clipPath>
</defs>
</svg>
