<svg width="30" height="30" viewBox="0 0 30 30" fill="none" xmlns="http://www.w3.org/2000/svg">
<g clip-path="url(#clip0_154_961)">
<path fill-rule="evenodd" clip-rule="evenodd" d="M15 30C23.2843 30 30 23.2843 30 15C30 6.71574 23.2843 0 15 0C6.71574 0 0 6.71574 0 15C0 23.2843 6.71574 30 15 30ZM7.5 11.8175C7.5 9.43674 9.43698 7.5 11.8175 7.5H18.1825C20.5633 7.5 22.5 9.43698 22.5 11.8175V18.2408C22.5 20.6214 20.5633 22.5584 18.1825 22.5584H11.8175C9.43674 22.5584 7.5 20.6214 7.5 18.2408V11.8175ZM11.0965 15.0016C11.0965 12.8654 12.8531 11.1277 15.0119 11.1277C17.1707 11.1277 18.9273 12.8654 18.9273 15.0016C18.9273 17.1376 17.1707 18.8753 15.0119 18.8753C12.8529 18.8753 11.0965 17.1376 11.0965 15.0016ZM12.5227 15.0016C12.5227 16.351 13.6392 17.4491 15.0119 17.4491C16.3846 17.4491 17.5012 16.3512 17.5012 15.0016C17.5012 13.652 16.3843 12.5541 15.0119 12.5541C13.6392 12.5541 12.5227 13.652 12.5227 15.0016ZM18.9974 11.8907C19.5062 11.8907 19.9187 11.4782 19.9187 10.9694C19.9187 10.4606 19.5062 10.0481 18.9974 10.0481C18.4886 10.0481 18.0762 10.4606 18.0762 10.9694C18.0762 11.4782 18.4886 11.8907 18.9974 11.8907Z" fill="#FF5000"/>
</g>
<defs>
<clipPath id="clip0_154_961">
<rect width="30" height="30" fill="white"/>
</clipPath>
</defs>
</svg>
