<svg width="20" height="20" viewBox="0 0 20 20" fill="none" xmlns="http://www.w3.org/2000/svg">
<g clip-path="url(#clip0_154_951)">
<path d="M16.6667 17.4995V19.1662H0V5.83289C0 4.74955 0.7 3.83289 1.66667 3.48289V17.4995H16.6667ZM9.9 7.59955C10.875 8.57455 12.4583 8.57455 13.4333 7.59955L19.3583 1.67455C18.9 1.15789 18.2417 0.832886 17.5 0.832886H5.83333C5.09167 0.832886 4.43333 1.16622 3.975 1.67455L9.9 7.59955ZM14.6167 8.77455C13.8083 9.58288 12.7333 9.99122 11.6667 9.99122C10.6 9.99122 9.53333 9.58288 8.71667 8.77455L3.33333 3.39122V15.8329H20V3.39122L14.6167 8.77455Z" fill="#061862" fill-opacity="0.5"/>
</g>
<defs>
<clipPath id="clip0_154_951">
<rect width="20" height="20" fill="white"/>
</clipPath>
</defs>
</svg>
