<svg width="30" height="30" viewBox="0 0 30 30" fill="none" xmlns="http://www.w3.org/2000/svg">
<g clip-path="url(#clip0_154_963)">
<path fill-rule="evenodd" clip-rule="evenodd" d="M15 30C23.2843 30 30 23.2843 30 15C30 6.71574 23.2843 0 15 0C6.71574 0 0 6.71574 0 15C0 23.2843 6.71574 30 15 30ZM16.0293 7.80438C15.2745 7.82541 14.478 8.00712 13.9154 8.54169C13.4507 8.97147 13.2167 9.597 13.1641 10.2223C13.148 10.6695 13.1503 11.1179 13.1526 11.5662C13.1543 11.9023 13.1561 12.2384 13.1501 12.5738C12.9434 12.5753 12.7361 12.5749 12.5288 12.5744C12.2522 12.5738 11.9756 12.5733 11.7 12.5773C11.7 12.8449 11.7004 13.1129 11.7008 13.3812C11.7016 13.9185 11.7023 14.4568 11.7 14.9952C11.9756 14.9992 12.2523 14.9986 12.5288 14.9981C12.7362 14.9976 12.9434 14.9972 13.1501 14.9987C13.1547 16.0656 13.1539 17.1325 13.153 18.1994C13.1519 19.5329 13.1508 20.8665 13.1606 22.2C13.7276 22.196 14.2935 22.1966 14.8595 22.1972C15.2841 22.1976 15.7087 22.198 16.1341 22.1965C16.1376 20.9962 16.1367 19.7969 16.1358 18.5976C16.1349 17.3982 16.1341 16.1989 16.1376 14.9987C16.4236 14.9972 16.7096 14.9976 16.9956 14.9981C17.377 14.9986 17.7583 14.9992 18.1397 14.9952C18.2585 14.1915 18.3597 13.3807 18.4156 12.5668C18.0383 12.565 17.661 12.565 17.2836 12.565C16.9063 12.565 16.5289 12.565 16.1516 12.5633C16.1516 12.4226 16.1514 12.2819 16.1512 12.1413C16.1505 11.7194 16.1498 11.2976 16.1551 10.8756C16.2145 10.5506 16.5498 10.3025 16.8749 10.3235H18.4191C18.4226 9.48147 18.4226 8.64294 18.4191 7.80087C18.2201 7.80087 18.0209 7.80066 17.8218 7.80045C17.2243 7.79979 16.6268 7.79913 16.0293 7.80438Z" fill="#FF5000"/>
</g>
<defs>
<clipPath id="clip0_154_963">
<rect width="30" height="30" fill="white"/>
</clipPath>
</defs>
</svg>
