<svg width="40" height="40" viewBox="0 0 40 40" fill="none" xmlns="http://www.w3.org/2000/svg">
<g clip-path="url(#clip0_124_1594)">
<path d="M33.3333 34.0733V40L30 36.6667L26.6667 40V34.0733C25.3957 33.3396 24.4024 32.2069 23.8408 30.8511C23.2792 29.4952 23.1807 27.9919 23.5605 26.5744C23.9403 25.1568 24.7773 23.9042 25.9416 23.0108C27.1059 22.1174 28.5324 21.6332 30 21.6332C31.4676 21.6332 32.8941 22.1174 34.0584 23.0108C35.2227 23.9042 36.0597 25.1568 36.4395 26.5744C36.8193 27.9919 36.7208 29.4952 36.1592 30.8511C35.5976 32.2069 34.6043 33.3396 33.3333 34.0733ZM23.3333 35.7717V36.6667H5V5C5 3.67392 5.52678 2.40215 6.46447 1.46447C7.40215 0.526784 8.67392 0 10 0L30 0C31.3261 0 32.5979 0.526784 33.5355 1.46447C34.4732 2.40215 35 3.67392 35 5V19.6817C32.8603 18.4388 30.3354 18.0344 27.9146 18.5468C25.4938 19.0593 23.3493 20.4521 21.8968 22.4554C20.4442 24.4586 19.787 26.9298 20.0524 29.39C20.3178 31.8502 21.4869 34.1243 23.3333 35.7717ZM11.6667 10H28.3333V6.66667H11.6667V10ZM11.6667 16.6667H28.3333V13.3333H11.6667V16.6667ZM11.6667 23.3333H20V20H11.6667V23.3333Z" fill="#FF5000"/>
</g>
<defs>
<clipPath id="clip0_124_1594">
<rect width="40" height="40" fill="white"/>
</clipPath>
</defs>
</svg>
