<svg width="48" height="48" viewBox="0 0 48 48" fill="none" xmlns="http://www.w3.org/2000/svg">
<rect width="48" height="48" rx="24" fill="#FF5000"/>
<g clip-path="url(#clip0_225_1951)">
<path d="M22.3191 28.8466C22.5396 29.0673 22.8015 29.2424 23.0898 29.3618C23.378 29.4813 23.687 29.5427 23.999 29.5427C24.311 29.5427 24.62 29.4813 24.9082 29.3618C25.1965 29.2424 25.4584 29.0673 25.6789 28.8466L28.221 26.3045C28.3573 26.1538 28.4304 25.9564 28.4251 25.7533C28.4199 25.5501 28.3368 25.3568 28.1929 25.2132C28.0491 25.0697 27.8555 24.9869 27.6524 24.9821C27.4492 24.9774 27.252 25.0509 27.1015 25.1875L24.7851 27.5047L24.7907 15.2917C24.7907 15.0817 24.7073 14.8803 24.5588 14.7319C24.4103 14.5834 24.209 14.5 23.999 14.5C23.789 14.5 23.5877 14.5834 23.4392 14.7319C23.2907 14.8803 23.2073 15.0817 23.2073 15.2917L23.2002 27.4897L20.8965 25.1875C20.7479 25.0391 20.5465 24.9557 20.3365 24.9558C20.1265 24.9559 19.9251 25.0393 19.7766 25.1879C19.6282 25.3364 19.5448 25.5379 19.5449 25.7479C19.545 25.9579 19.6285 26.1593 19.777 26.3077L22.3191 28.8466Z" fill="white"/>
<path d="M32.7083 27.1667C32.4984 27.1667 32.297 27.2501 32.1485 27.3985C32.0001 27.547 31.9167 27.7484 31.9167 27.9583V31.125C31.9167 31.335 31.8333 31.5363 31.6848 31.6848C31.5363 31.8332 31.335 31.9167 31.125 31.9167H16.875C16.665 31.9167 16.4637 31.8332 16.3152 31.6848C16.1667 31.5363 16.0833 31.335 16.0833 31.125V27.9583C16.0833 27.7484 15.9999 27.547 15.8515 27.3985C15.703 27.2501 15.5016 27.1667 15.2917 27.1667C15.0817 27.1667 14.8803 27.2501 14.7319 27.3985C14.5834 27.547 14.5 27.7484 14.5 27.9583V31.125C14.5 31.7549 14.7502 32.359 15.1956 32.8044C15.641 33.2498 16.2451 33.5 16.875 33.5H31.125C31.7549 33.5 32.359 33.2498 32.8044 32.8044C33.2498 32.359 33.5 31.7549 33.5 31.125V27.9583C33.5 27.7484 33.4166 27.547 33.2681 27.3985C33.1197 27.2501 32.9183 27.1667 32.7083 27.1667Z" fill="white"/>
</g>
<defs>
<clipPath id="clip0_225_1951">
<rect width="19" height="19" fill="white" transform="translate(14.5 14.5)"/>
</clipPath>
</defs>
</svg>
