<svg width="15" height="16" viewBox="0 0 15 16" fill="none" xmlns="http://www.w3.org/2000/svg">
<g clip-path="url(#clip0_2001_367)">
<path d="M7.5 0.5C3.36437 0.5 0 3.86437 0 8C0 12.1356 3.36437 15.5 7.5 15.5C11.6356 15.5 15 12.1356 15 8C15 3.86437 11.6356 0.5 7.5 0.5ZM9.70875 8.94438L8.30813 11.9794C8.19688 12.2206 7.95563 12.375 7.69 12.375H7.55687C7.18062 12.375 6.87563 12.07 6.87563 11.6938V10.2156C6.87563 9.9975 6.78875 9.78813 6.63437 9.63375L5.89062 8.89C5.72062 8.72 5.625 8.48938 5.625 8.24938V7.6475C5.625 7.47312 5.55562 7.30562 5.43188 7.18188L5.19875 6.94875C5.07125 6.82125 4.89875 6.75 4.71875 6.75H3.50062C3.26062 6.75 3.03125 6.65188 2.86562 6.4775L1.82938 5.38812C2.82125 3.24437 4.98688 1.75 7.5 1.75C7.62875 1.75 7.75437 1.76187 7.88063 1.76937C7.5475 2.27437 7.24563 2.73875 7.0625 3.0225C6.94688 3.20062 6.94438 3.4275 7.05375 3.61L7.57688 4.4825C7.71563 4.71313 7.67875 5.00875 7.48875 5.19938L7.48688 5.20125C7.30813 5.38 7.03563 5.42438 6.80938 5.31125L6.25938 5.03625C6.0675 4.94 5.83562 4.97813 5.68375 5.12937L5.35312 5.46C5.15812 5.655 5.15812 5.97062 5.35312 6.165L5.72312 6.535C5.86062 6.6725 6.0475 6.75 6.24188 6.75H7.13625C7.37438 6.75 7.6075 6.81687 7.80937 6.94312L9.41063 7.94375C9.7475 8.15438 9.87563 8.58313 9.70875 8.94438ZM12.2025 8.1625C11.995 8.05938 11.8431 7.87062 11.7869 7.64562L11.395 6.07875C11.3094 5.73625 11.4612 5.37812 11.7669 5.20187L12.7563 4.63125C13.3825 5.60437 13.75 6.75938 13.75 8C13.75 8.305 13.7206 8.60188 13.6781 8.895L12.2025 8.1625Z" fill="white" fill-opacity="0.5"/>
</g>
<defs>
<clipPath id="clip0_2001_367">
<rect width="15" height="15" fill="white" transform="translate(0 0.5)"/>
</clipPath>
</defs>
</svg>
