<svg width="29" height="28" viewBox="0 0 29 28" fill="none" xmlns="http://www.w3.org/2000/svg">
<g clip-path="url(#clip0_35_382)">
<path d="M22.2938 18.6667C19.7202 18.6667 17.6272 16.5737 17.6272 14C17.6272 11.4263 19.7202 9.33333 22.2938 9.33333C24.8675 9.33333 26.9605 11.4263 26.9605 14C26.9605 16.5737 24.8675 18.6667 22.2938 18.6667ZM14.7105 9.33333C12.1368 9.33333 10.0438 7.24033 10.0438 4.66667C10.0438 2.093 12.1368 0 14.7105 0C17.2842 0 19.3772 2.093 19.3772 4.66667C19.3772 7.24033 17.2842 9.33333 14.7105 9.33333ZM7.12715 18.6667C4.55349 18.6667 2.46049 16.5737 2.46049 14C2.46049 11.4263 4.55349 9.33333 7.12715 9.33333C9.70082 9.33333 11.7938 11.4263 11.7938 14C11.7938 16.5737 9.70082 18.6667 7.12715 18.6667ZM13.5438 28V24.5C13.5438 22.5995 12.0272 21.0618 10.1395 21.0093L7.12715 24.5L4.06932 21.014C2.20265 21.0898 0.710487 22.6147 0.710487 24.5V28M28.7105 28V24.5C28.7105 22.5995 27.1938 21.0618 25.3062 21.0093L22.2938 24.5L19.236 21.014C17.3693 21.0898 15.8772 22.6147 15.8772 24.5V28" fill="url(#paint0_linear_35_382)"/>
</g>
<defs>
<linearGradient id="paint0_linear_35_382" x1="14.7105" y1="0" x2="14.7105" y2="28" gradientUnits="userSpaceOnUse">
<stop stop-color="#FF5000"/>
<stop offset="1" stop-color="#FFC400"/>
</linearGradient>
<clipPath id="clip0_35_382">
<rect width="28" height="28" fill="white" transform="translate(0.710487)"/>
</clipPath>
</defs>
</svg>
