<svg width="55" height="55" viewBox="0 0 55 55" fill="none" xmlns="http://www.w3.org/2000/svg">
<rect width="55" height="55" rx="27.5" fill="#FF5000"/>
<path d="M39.8138 26.6469C38.8992 24.6469 35.3128 18.125 27.5003 18.125C19.6878 18.125 16.1013 24.6469 15.1867 26.6469C14.9378 27.1896 14.9378 27.8125 15.1867 28.3552C16.1013 30.3531 19.6878 36.875 27.5003 36.875C35.3128 36.875 38.8992 30.3531 39.8138 28.3531C40.0617 27.8115 40.0617 27.1885 39.8138 26.6469ZM27.5003 32.7083C25.7617 32.7083 24.2315 31.8479 23.2857 30.5385L24.8513 28.9729L26.4138 30.5354L29.2336 27.7156L30.5805 29.0625V25.4906C30.5805 25.1615 30.3138 24.8958 29.9857 24.8958H26.4138L27.7607 26.2427L26.4138 27.5896L24.8513 26.0271L22.3909 28.4875C22.3294 28.1677 22.2909 27.8385 22.2909 27.501C22.2909 24.625 24.6232 22.2927 27.4992 22.2927C30.3753 22.2927 32.7076 24.625 32.7076 27.501C32.7076 30.3771 30.3753 32.7094 27.4992 32.7094L27.5003 32.7083Z" fill="white"/>
</svg>
