<svg width="16" height="17" viewBox="0 0 16 17" fill="none" xmlns="http://www.w3.org/2000/svg">
<g clip-path="url(#clip0_225_2880)">
<path d="M12.9427 3.83333H10V0.890667L12.9427 3.83333ZM16 10.1913C16 10.6433 15.824 11.0687 15.504 11.388L10.3927 16.4993H7.99933V14.106L13.1113 8.99467C13.7713 8.33467 14.8447 8.33467 15.5047 8.99467C15.824 9.314 16 9.73933 16 10.1913ZM6.666 13.554L12.168 8.05267C12.5013 7.71933 12.8987 7.47333 13.3333 7.32667V5.16733H8.66667V0.5H2C0.895333 0.5 0 1.39533 0 2.5V16.5H6.666V13.554Z" fill="#2A3979" fill-opacity="0.5"/>
</g>
<defs>
<clipPath id="clip0_225_2880">
<rect width="16" height="16" fill="white" transform="translate(0 0.5)"/>
</clipPath>
</defs>
</svg>
