<svg width="14" height="14" viewBox="0 0 14 14" fill="none" xmlns="http://www.w3.org/2000/svg">
<g clip-path="url(#clip0_48_155)">
<path d="M11.6667 12.2497V13.4163H0V4.08301C0 3.32467 0.49 2.68301 1.16667 2.43801V12.2497H11.6667ZM6.93 5.31967C7.6125 6.00217 8.72083 6.00217 9.40333 5.31967L13.5508 1.17217C13.23 0.810508 12.7692 0.583008 12.25 0.583008H4.08333C3.56417 0.583008 3.10333 0.816341 2.7825 1.17217L6.93 5.31967ZM10.2317 6.14217C9.66583 6.70801 8.91333 6.99384 8.16667 6.99384C7.42 6.99384 6.67333 6.70801 6.10167 6.14217L2.33333 2.37384V11.083H14V2.37384L10.2317 6.14217Z" fill="white"/>
</g>
<defs>
<clipPath id="clip0_48_155">
<rect width="14" height="14" fill="white"/>
</clipPath>
</defs>
</svg>
