<svg width="29" height="28" viewBox="0 0 29 28" fill="none" xmlns="http://www.w3.org/2000/svg">
<g clip-path="url(#clip0_12_324)">
<path d="M23.9902 2.946L27.5438 4.72283L28.7105 4.66566V19.8323H26.4973L16.4722 11.4545L18.4975 9.5155L16.884 7.82966L12.0155 12.4905C11.774 12.7332 11.4403 12.858 11.0962 12.8288C10.7485 12.8008 10.4428 12.6247 10.234 12.333C9.91432 11.8897 10.0123 11.1955 10.4452 10.7615L17.7975 3.58533C19.5592 2.21683 22.0185 1.96016 23.9902 2.946ZM14.7758 13.0797L13.6477 14.1588C13.0048 14.8028 12.117 15.1657 11.193 15.1657C10.045 15.1657 8.94715 14.5403 8.34165 13.6968C7.35465 12.3295 7.55415 10.3532 8.80599 9.1025L13.4808 4.53966L12.761 3.84783C11.6888 2.87133 10.3005 2.3335 8.80599 2.3335C7.90649 2.3335 7.00932 2.54583 6.20782 2.946L3.93399 4.66683H0.710487V19.8335H3.82199L14.7105 28.0002L24.1535 20.9173L14.7758 13.0797Z" fill="url(#paint0_linear_12_324)"/>
</g>
<defs>
<linearGradient id="paint0_linear_12_324" x1="14.7105" y1="2.3335" x2="14.7105" y2="28.0002" gradientUnits="userSpaceOnUse">
<stop stop-color="#FF5000"/>
<stop offset="1" stop-color="#FFC400"/>
</linearGradient>
<clipPath id="clip0_12_324">
<rect width="28" height="28" fill="white" transform="translate(0.710487)"/>
</clipPath>
</defs>
</svg>
