<svg width="44" height="44" viewBox="0 0 44 44" fill="none" xmlns="http://www.w3.org/2000/svg">
<g clip-path="url(#clip0_307_2662)">
<path fill-rule="evenodd" clip-rule="evenodd" d="M22 44C34.1502 44 44 34.1502 44 22C44 9.84984 34.1502 0 22 0C9.84984 0 0 9.84984 0 22C0 34.1502 9.84984 44 22 44ZM31.6699 14.0554C31.8397 12.1282 29.8043 12.9219 29.8043 12.9219C28.3017 13.5441 26.752 14.1759 25.1856 14.8148C20.328 16.7961 15.3102 18.843 11.0356 20.8578C8.71772 21.7078 10.0747 22.5579 10.0747 22.5579L13.7491 23.6918C15.4453 24.2022 16.3495 23.635 16.3495 23.635L24.2642 18.2503C27.0908 16.3231 26.4123 17.9102 25.7338 18.5904L19.7982 24.2585C18.8936 25.0523 19.3459 25.7325 19.7415 26.0726C20.8635 27.0622 23.6223 28.8728 24.8266 29.663C25.1398 29.8685 25.348 30.0054 25.395 30.0406C25.6775 30.2672 27.2039 31.2875 28.2216 31.0609C29.2393 30.8339 29.3524 29.5302 29.3524 29.5302L30.7089 20.6307C30.9122 19.0859 31.1458 17.6009 31.3324 16.4146C31.5084 15.2944 31.6426 14.4412 31.6699 14.0554Z" fill="#FF5000"/>
</g>
<defs>
<clipPath id="clip0_307_2662">
<rect width="44" height="44" fill="white"/>
</clipPath>
</defs>
</svg>
