<svg width="44" height="44" viewBox="0 0 44 44" fill="none" xmlns="http://www.w3.org/2000/svg">
<g clip-path="url(#clip0_307_2664)">
<path fill-rule="evenodd" clip-rule="evenodd" d="M22 44C34.1502 44 44 34.1502 44 22C44 9.84975 34.1502 0 22 0C9.84975 0 0 9.84975 0 22C0 34.1502 9.84975 44 22 44ZM11 17.3324C11 13.8406 13.8409 11 17.3324 11H26.6676C30.1595 11 33 13.8409 33 17.3324V26.7532C33 30.2447 30.1595 33.0856 26.6676 33.0856H17.3324C13.8406 33.0856 11 30.2447 11 26.7532V17.3324ZM16.2749 22.0024C16.2749 18.8693 18.8513 16.3206 22.0175 16.3206C25.1837 16.3206 27.7601 18.8693 27.7601 22.0024C27.7601 25.1351 25.1837 27.6838 22.0175 27.6838C18.8509 27.6838 16.2749 25.1351 16.2749 22.0024ZM18.3666 22.0024C18.3666 23.9815 20.0042 25.5921 22.0175 25.5921C24.0307 25.5921 25.6684 23.9818 25.6684 22.0024C25.6684 20.0229 24.0304 18.4126 22.0175 18.4126C20.0042 18.4126 18.3666 20.0229 18.3666 22.0024ZM27.8629 17.4396C28.6092 17.4396 29.2141 16.8347 29.2141 16.0884C29.2141 15.3422 28.6092 14.7373 27.8629 14.7373C27.1167 14.7373 26.5117 15.3422 26.5117 16.0884C26.5117 16.8347 27.1167 17.4396 27.8629 17.4396Z" fill="#FF5000"/>
</g>
<defs>
<clipPath id="clip0_307_2664">
<rect width="44" height="44" fill="white"/>
</clipPath>
</defs>
</svg>
