<svg width="44" height="44" viewBox="0 0 44 44" fill="none" xmlns="http://www.w3.org/2000/svg">
<g clip-path="url(#clip0_307_2666)">
<path fill-rule="evenodd" clip-rule="evenodd" d="M22 44C34.1502 44 44 34.1502 44 22C44 9.84975 34.1502 0 22 0C9.84975 0 0 9.84975 0 22C0 34.1502 9.84975 44 22 44ZM23.5096 11.4464C22.4026 11.4773 21.2344 11.7438 20.4092 12.5278C19.7278 13.1582 19.3845 14.0756 19.3073 14.9927C19.2838 15.6486 19.2871 16.3063 19.2905 16.9637C19.293 17.4567 19.2955 17.9496 19.2867 18.4415C18.9837 18.4437 18.6797 18.4431 18.3755 18.4425C17.97 18.4416 17.5641 18.4408 17.16 18.4467C17.16 18.8392 17.1606 19.2323 17.1611 19.6258C17.1623 20.4138 17.1634 21.2033 17.16 21.9929C17.5641 21.9988 17.97 21.998 18.3756 21.9971C18.6797 21.9965 18.9837 21.9959 19.2867 21.9981C19.2936 23.5629 19.2923 25.1277 19.2911 26.6924C19.2895 28.6483 19.2879 30.6042 19.3021 32.56C20.1339 32.5541 20.9638 32.5549 21.794 32.5558C22.4167 32.5564 23.0395 32.5571 23.6633 32.5549C23.6684 30.7945 23.6672 29.0355 23.6658 27.2765C23.6646 25.5174 23.6633 23.7584 23.6684 21.9981C24.0879 21.9959 24.5074 21.9965 24.9268 21.9971C25.4862 21.998 26.0455 21.9988 26.6049 21.9929C26.7791 20.8142 26.9276 19.6251 27.0096 18.4312C26.4562 18.4287 25.9028 18.4287 25.3493 18.4287C24.7958 18.4287 24.2424 18.4287 23.689 18.4261C23.689 18.2198 23.6887 18.0135 23.6884 17.8072C23.6874 17.1884 23.6864 16.5698 23.6941 15.9509C23.7813 15.4742 24.2731 15.1103 24.7498 15.1412H27.0147C27.0199 13.9062 27.0199 12.6763 27.0147 11.4413C26.7227 11.4413 26.4307 11.441 26.1386 11.4407C25.2624 11.4397 24.386 11.4387 23.5096 11.4464Z" fill="#FF5000"/>
</g>
<defs>
<clipPath id="clip0_307_2666">
<rect width="44" height="44" fill="white"/>
</clipPath>
</defs>
</svg>
