<svg width="40" height="40" viewBox="0 0 40 40" fill="none" xmlns="http://www.w3.org/2000/svg">
<g clip-path="url(#clip0_124_699)">
<path d="M3.33333 20H0C0 8.97167 8.97167 0 20 0C24.97 0 29.7017 1.86167 33.3333 5.11V0H36.6667V8.33333C36.6667 10.1717 35.1717 11.6667 33.3333 11.6667H25V8.33333H31.86C28.7517 5.17833 24.4983 3.33333 20 3.33333C10.81 3.33333 3.33333 10.81 3.33333 20ZM36.6667 20C36.6667 29.19 29.19 36.6667 20 36.6667C15.5017 36.6667 11.2467 34.8217 8.13833 31.6667H15V28.3333H6.66667C4.82833 28.3333 3.33333 29.8283 3.33333 31.6667V40H6.66667V34.89C10.2983 38.1383 15.03 40 20 40C31.0283 40 40 31.0283 40 20H36.6667ZM29.4967 16.4533L27.1367 17.8133C27.3517 18.51 27.5 19.235 27.5 20C27.5 20.765 27.3517 21.49 27.1367 22.1867L29.4967 23.5467L27.8333 26.435L25.4817 25.08C24.4733 26.1667 23.16 26.955 21.6667 27.2967V29.9983H18.3333V27.2967C16.84 26.955 15.5267 26.1667 14.5183 25.08L12.1667 26.435L10.5033 23.5467L12.8633 22.1867C12.6483 21.49 12.5 20.765 12.5 19.9983C12.5 19.2317 12.6483 18.5067 12.8633 17.8117L10.5033 16.4533L12.1667 13.565L14.5183 14.9183C15.5267 13.8317 16.84 13.0433 18.3333 12.7017V10H21.6667V12.7017C23.16 13.0433 24.475 13.8317 25.4817 14.9183L27.8333 13.5633L29.4967 16.4533ZM22.5 20C22.5 18.6217 21.3783 17.5 20 17.5C18.6217 17.5 17.5 18.6217 17.5 20C17.5 21.3783 18.6217 22.5 20 22.5C21.3783 22.5 22.5 21.3783 22.5 20Z" fill="white"/>
</g>
<defs>
<clipPath id="clip0_124_699">
<rect width="40" height="40" fill="white"/>
</clipPath>
</defs>
</svg>
