<svg width="40" height="40" viewBox="0 0 40 40" fill="none" xmlns="http://www.w3.org/2000/svg">
<g clip-path="url(#clip0_124_694)">
<path d="M16.785 31.6667C16.9333 32.83 17.22 33.95 17.645 35H5V22.355C6.05 22.78 7.17 23.0683 8.33333 23.215V31.6667H16.785ZM22.355 5C22.78 6.05 23.0683 7.17 23.215 8.33333H31.6667V16.785C32.83 16.9333 33.95 17.22 35 17.645V5H22.355ZM20 10C20 15.515 15.515 20 10 20C4.485 20 0 15.515 0 10C0 4.485 4.485 0 10 0C15.515 0 20 4.485 20 10ZM7.5 7.5C7.5 8.88 8.62 10 10 10C11.38 10 12.5 8.88 12.5 7.5C12.5 6.12 11.38 5 10 5C8.62 5 7.5 6.12 7.5 7.5ZM15 14.1667C15 12.7867 13.88 11.6667 12.5 11.6667H7.5C6.12 11.6667 5 12.7867 5 14.1667V14.3633C6.22333 15.7633 7.99833 16.6667 10 16.6667C12.0017 16.6667 13.7767 15.7633 15 14.3633V14.1667ZM40 30C40 35.515 35.515 40 30 40C24.485 40 20 35.515 20 30C20 24.485 24.485 20 30 20C35.515 20 40 24.485 40 30ZM27.5 27.5C27.5 28.88 28.62 30 30 30C31.38 30 32.5 28.88 32.5 27.5C32.5 26.12 31.38 25 30 25C28.62 25 27.5 26.12 27.5 27.5ZM35 34.1667C35 32.7867 33.88 31.6667 32.5 31.6667H27.5C26.12 31.6667 25 32.7867 25 34.1667V34.3633C26.2233 35.7633 27.9983 36.6667 30 36.6667C32.0017 36.6667 33.7767 35.7633 35 34.3633V34.1667Z" fill="white"/>
</g>
<defs>
<clipPath id="clip0_124_694">
<rect width="40" height="40" fill="white"/>
</clipPath>
</defs>
</svg>
