<svg width="41" height="40" viewBox="0 0 41 40" fill="none" xmlns="http://www.w3.org/2000/svg">
<g clip-path="url(#clip0_124_1598)">
<path d="M16.167 4.16667C16.167 1.865 18.032 0 20.3337 0C22.6354 0 24.5004 1.865 24.5004 4.16667C24.5004 6.46833 22.6354 8.33333 20.3337 8.33333C18.032 8.33333 16.167 6.46833 16.167 4.16667ZM14.8337 19.2783C13.1387 17.74 10.387 18.0767 9.15536 20.1667C8.35536 21.525 8.6037 23.2633 9.6087 24.4767L15.0137 29.935L12.6737 32.275L6.94536 26.4883C4.73036 23.815 4.82036 19.86 7.1537 17.29C7.3987 17.02 8.66536 15.9933 8.66536 15.9933V9.40333C8.66536 7.22333 7.09703 5.23833 4.9287 5.02C2.43536 4.77 0.332031 6.72167 0.332031 9.165V29.815C0.332031 31.4783 0.953698 33.0833 2.07703 34.3117L7.27203 39.9983H23.6654V29.5117C23.6654 28.1017 23.0704 26.7583 22.027 25.81L14.832 19.2767L14.8337 19.2783ZM31.0587 24.4783L26.9137 28.6983C26.7104 26.6567 25.7987 24.735 24.2687 23.345L22.812 22.0217L25.8337 19.2783C27.5287 17.74 30.2804 18.0767 31.512 20.1667C32.312 21.525 32.0637 23.2633 31.0587 24.4767V24.4783ZM40.3337 9.16667V29.8167C40.3337 31.48 39.712 33.085 38.5887 34.3133L33.3937 40H27.0004V33.3017L33.722 26.4883C35.937 23.815 35.847 19.86 33.5137 17.29C33.2687 17.02 32.002 15.9933 32.002 15.9933V9.16667C32.002 6.865 33.867 5 36.1687 5C38.4704 5 40.3337 6.865 40.3337 9.16667ZM17.0737 16.8117L20.3337 19.77L23.5954 16.81C24.567 15.9267 25.7454 15.345 27.0004 15.1083V14.1667C27.0004 11.87 25.132 10 22.8337 10H17.8337C15.5354 10 13.667 11.87 13.667 14.1667V15.11C14.922 15.3483 16.102 15.93 17.0737 16.8133V16.8117Z" fill="#FF5000"/>
</g>
<defs>
<clipPath id="clip0_124_1598">
<rect width="40" height="40" fill="white" transform="translate(0.333496)"/>
</clipPath>
</defs>
</svg>
