<svg width="40" height="40" viewBox="0 0 40 40" fill="none" xmlns="http://www.w3.org/2000/svg">
<g clip-path="url(#clip0_124_691)">
<path d="M18.3334 15H24.9484L23.6984 20H18.3334V15ZM23.785 29.6133C23.3967 30.215 22.845 30.745 22.1284 31.1433C20.825 31.865 19.1767 31.865 17.8734 31.1433C17.155 30.745 16.605 30.215 16.2167 29.6133C15.5234 28.54 14.2484 27.9683 13.0017 28.2517C12.2884 28.4133 11.5084 28.4033 10.7017 28.1717C9.27003 27.7617 8.10336 26.595 7.69336 25.1633C7.4617 24.3567 7.4517 23.575 7.61336 22.86C7.8967 21.6133 7.32503 20.3383 6.2517 19.6467C5.03836 18.8933 4.1367 17.3283 4.1817 15.84C4.13503 14.3533 5.0367 12.7867 6.2517 12.0333C7.32503 11.34 7.8967 10.065 7.61336 8.81999C7.4517 8.10499 7.4617 7.32499 7.69336 6.51832C8.10336 5.08665 9.27003 3.91999 10.7017 3.50999C11.5084 3.27832 12.2884 3.26832 13.0017 3.42999C14.2484 3.71332 15.5234 3.14332 16.2167 2.06832C16.605 1.46665 17.155 0.936654 17.8734 0.53832C19.1767 -0.183346 20.8267 -0.183346 22.1284 0.53832C22.8467 0.936654 23.3967 1.46665 23.785 2.06832C24.4784 3.14165 25.7534 3.71332 27 3.42999C27.7134 3.26832 28.4934 3.27832 29.3 3.50999C30.7317 3.91999 31.8984 5.08665 32.3084 6.51832C32.54 7.32499 32.55 8.10665 32.3884 8.81999C32.105 10.0667 32.6767 11.3417 33.75 12.0333C34.9634 12.7867 35.865 14.3517 35.82 15.84C35.8667 17.3267 34.965 18.8933 33.75 19.6467C32.6767 20.34 32.105 21.615 32.3884 22.86C32.55 23.575 32.54 24.355 32.3084 25.1633C31.8984 26.595 30.7317 27.7617 29.3 28.1717C28.4934 28.4033 27.7134 28.4133 27 28.2517C25.7534 27.9683 24.4784 28.5383 23.785 29.6133ZM26.3017 23.3333L28.2834 15.405L28.445 11.6667H20.9517L21.5967 9.65832C21.6667 9.24165 21.6317 9.01332 21.605 8.91332C21.3717 8.05499 20.6717 7.49999 19.8234 7.49999C19.1017 7.50665 18.665 7.90165 18.1784 8.55832L15.7134 11.6667H14.5017C12.9384 11.6667 11.6684 12.9383 11.6684 14.5V20.5C11.6684 22.0633 12.94 23.3333 14.5017 23.3333H26.3017ZM13.5017 31.5533C12.2917 31.79 11.0084 31.73 9.78336 31.3783C7.4117 30.6983 5.48503 28.8833 4.64836 26.5783L0.588362 30.635C0.266695 30.9583 0.0616954 31.3867 0.0116954 31.8433C-0.109971 32.955 0.693362 33.9583 1.80503 34.08L5.5067 34.49L5.91503 38.1767C5.99336 38.9583 6.5217 39.6267 7.25836 39.8817C7.99836 40.1467 8.8267 39.955 9.36336 39.405L15.315 33.4533C14.6017 32.9217 13.9934 32.2867 13.4984 31.5533H13.5017ZM39.4117 30.6367L35.3534 26.5783C34.5167 28.8833 32.5884 30.7 30.2184 31.3783C28.9917 31.7283 27.7117 31.7883 26.5 31.5533C26.0067 32.2867 25.3967 32.9217 24.6834 33.4533L30.635 39.405C31.1734 39.955 32.0017 40.1467 32.74 39.8817C33.4767 39.625 34.0067 38.9583 34.0834 38.1767L34.4917 34.49L38.1934 34.08C39.305 33.9566 40.1084 32.955 39.9867 31.8433C39.9367 31.3883 39.7317 30.9583 39.41 30.635L39.4117 30.6367Z" fill="white"/>
</g>
<defs>
<clipPath id="clip0_124_691">
<rect width="40" height="40" fill="white"/>
</clipPath>
</defs>
</svg>
