<svg width="55" height="55" viewBox="0 0 55 55" fill="none" xmlns="http://www.w3.org/2000/svg">
<rect width="55" height="55" rx="27.5" fill="#FF5000"/>
<g clip-path="url(#clip0_156_1485)">
<path d="M25.4167 39.9998H15V37.9165H25.4167V39.9998ZM23.3333 33.7498H15V35.8332H23.3333V33.7498ZM21.25 29.5832H15V31.6665H21.25V29.5832ZM39.9906 27.0061C40.0552 28.6874 39.78 30.3645 39.1816 31.9371C38.5831 33.5096 37.6737 34.9453 36.5076 36.1583C35.3416 37.3714 33.9429 38.3368 32.3952 38.9968C30.8475 39.6569 29.1826 39.998 27.5 39.9998V37.9165C27.5 37.364 27.2805 36.8341 26.8898 36.4434C26.4991 36.0527 25.9692 35.8332 25.4167 35.8332V33.7498C25.4167 33.1973 25.1972 32.6674 24.8065 32.2767C24.4158 31.886 23.8859 31.6665 23.3333 31.6665V29.5832C23.3333 29.0306 23.1138 28.5007 22.7231 28.11C22.3324 27.7193 21.8025 27.4998 21.25 27.4998H15C15.002 25.8172 15.3433 24.1523 16.0034 22.6046C16.6636 21.0569 17.6291 19.6582 18.8422 18.4921C20.0553 17.3261 21.4911 16.4167 23.0637 15.8183C24.6363 15.2198 26.3134 14.9447 27.9948 15.0092C31.1277 15.1604 34.0919 16.4729 36.3097 18.6909C38.5274 20.9088 39.8397 23.8732 39.9906 27.0061ZM26.4583 21.0342V26.6738L29.8885 30.104L31.3615 28.6311L28.5417 25.8113V21.0342H26.4583Z" fill="white"/>
</g>
<defs>
<clipPath id="clip0_156_1485">
<rect width="25" height="25" fill="white" transform="translate(15 15)"/>
</clipPath>
</defs>
</svg>
