<svg width="41" height="40" viewBox="0 0 41 40" fill="none" xmlns="http://www.w3.org/2000/svg">
<g clip-path="url(#clip0_124_1596)">
<path d="M20.6667 1.66669H5.66675C2.91008 1.66669 0.666748 3.91002 0.666748 6.66669V30H25.6667V6.66669C25.6667 3.91002 23.4234 1.66669 20.6667 1.66669ZM14.2517 20.69C13.6017 21.34 12.7484 21.665 11.8951 21.665C11.0417 21.665 10.1884 21.34 9.53841 20.69L5.08341 16.235L7.44008 13.8784L11.8951 18.3334L18.8917 11.335L21.2484 13.6917L14.2517 20.69ZM37.2367 33.3334C37.2934 33.6034 37.3334 33.88 37.3334 34.1667C37.3334 36.4684 35.4684 38.3334 33.1667 38.3334C30.8651 38.3334 29.0001 36.4684 29.0001 34.1667C29.0001 33.88 29.0401 33.6034 29.0967 33.3334H37.2384H37.2367ZM13.9034 33.3334C13.9601 33.6034 14.0001 33.88 14.0001 34.1667C14.0001 36.4684 12.1351 38.3334 9.83341 38.3334C7.53175 38.3334 5.66675 36.4684 5.66675 34.1667C5.66675 33.88 5.70675 33.6034 5.76341 33.3334H13.9034ZM40.6667 16.6667V18.3334H29.0001V8.33335H32.3334C36.9284 8.33335 40.6667 12.0717 40.6667 16.6667ZM29.0001 21.6667H40.6667V30H29.0001V21.6667Z" fill="#FF5000"/>
</g>
<defs>
<clipPath id="clip0_124_1596">
<rect width="40" height="40" fill="white" transform="translate(0.666748)"/>
</clipPath>
</defs>
</svg>
